<?xml version="1.0" encoding="utf-8"?>
<!-- Generator: Adobe Illustrator 16.0.0, SVG Export Plug-In . SVG Version: 6.00 Build 0)  -->
<!DOCTYPE svg PUBLIC "-//W3C//DTD SVG 1.1//EN" "http://www.w3.org/Graphics/SVG/1.1/DTD/svg11.dtd">
<svg version="1.1" id="Ebene_1" xmlns="http://www.w3.org/2000/svg" xmlns:xlink="http://www.w3.org/1999/xlink" x="0px" y="0px"
	 width="174.763px" height="264.2px" viewBox="0 0 174.763 264.2" enable-background="new 0 0 174.763 264.2" xml:space="preserve">
<path fill="none" stroke="#000000" stroke-miterlimit="10" d="M167.878,263.996C139.328,199.868,64.332,171.08,0.204,199.631"/>
<g>
	<g>
		
			<line fill="none" stroke="#000000" stroke-width="0.75" stroke-miterlimit="10" x1="52.169" y1="61.118" x2="52.169" y2="62.368"/>
		
			<line fill="none" stroke="#000000" stroke-width="0.75" stroke-miterlimit="10" stroke-dasharray="2.4507,2.4507" x1="52.169" y1="64.819" x2="52.169" y2="186.127"/>
		
			<line fill="none" stroke="#000000" stroke-width="0.75" stroke-miterlimit="10" x1="52.169" y1="187.352" x2="52.169" y2="188.602"/>
	</g>
</g>
<line fill="none" stroke="#000000" stroke-miterlimit="10" x1="52.169" y1="188.602" x2="87.369" y2="77.118"/>
<g>
	<g>
		<line fill="none" stroke="#004F9F" stroke-miterlimit="10" x1="124.764" y1="183.785" x2="168.119" y2="183.785"/>
		<g>
			<polygon fill="#004F9F" points="166.632,185.964 174.763,183.787 166.632,181.606 			"/>
		</g>
	</g>
</g>
<text transform="matrix(1 0 0 1 107.2637 27.1182)" fill="#004F9F" font-family="'Cambria-Italic'" font-size="12">Quelle</text>
<g>
	<g>
		<line fill="none" stroke="#004F9F" stroke-width="0.5" stroke-miterlimit="10" x1="87.369" y1="29.984" x2="87.369" y2="72.399"/>
		<g>
			<polygon fill="#004F9F" points="85.916,71.409 87.368,76.829 88.821,71.409 			"/>
		</g>
	</g>
</g>
<g>
	<radialGradient id="SVGID_1_" cx="87.3687" cy="29.9844" r="11.3281" gradientUnits="userSpaceOnUse">
		<stop  offset="0" style="stop-color:#000000"/>
		<stop  offset="0.73" style="stop-color:#984023"/>
		<stop  offset="1" style="stop-color:#000000"/>
	</radialGradient>
	<circle opacity="0.15" fill="url(#SVGID_1_)" cx="87.369" cy="29.984" r="11.328"/>
	<radialGradient id="SVGID_2_" cx="87.3687" cy="29.9844" r="5.6648" gradientUnits="userSpaceOnUse">
		<stop  offset="0.15" style="stop-color:#FFFFFF"/>
		<stop  offset="0.2134" style="stop-color:#E0CBC9"/>
		<stop  offset="0.2931" style="stop-color:#C09593"/>
		<stop  offset="0.362" style="stop-color:#AA706F"/>
		<stop  offset="0.4166" style="stop-color:#9E5B5C"/>
		<stop  offset="0.45" style="stop-color:#995356"/>
		<stop  offset="0.5442" style="stop-color:#7E342F"/>
		<stop  offset="0.6472" style="stop-color:#5C1A0C"/>
		<stop  offset="0.7362" style="stop-color:#3F0800"/>
		<stop  offset="0.8068" style="stop-color:#1F0200"/>
		<stop  offset="0.85" style="stop-color:#000000"/>
		<stop  offset="0.856" style="stop-color:#120100"/>
		<stop  offset="0.8623" style="stop-color:#2F0200"/>
		<stop  offset="0.8686" style="stop-color:#430700"/>
		<stop  offset="0.875" style="stop-color:#5A1100"/>
		<stop  offset="0.8815" style="stop-color:#761D04"/>
		<stop  offset="0.888" style="stop-color:#952A10"/>
		<stop  offset="0.8945" style="stop-color:#B63B1D"/>
		<stop  offset="0.9" style="stop-color:#D34E29"/>
		<stop  offset="0.9063" style="stop-color:#BE4020"/>
		<stop  offset="0.916" style="stop-color:#A02F14"/>
		<stop  offset="0.9262" style="stop-color:#822209"/>
		<stop  offset="0.9367" style="stop-color:#681700"/>
		<stop  offset="0.9475" style="stop-color:#510D00"/>
		<stop  offset="0.9588" style="stop-color:#3D0500"/>
		<stop  offset="0.9707" style="stop-color:#290200"/>
		<stop  offset="0.9838" style="stop-color:#0E0100"/>
		<stop  offset="1" style="stop-color:#000000"/>
	</radialGradient>
	<circle opacity="0.5" fill="url(#SVGID_2_)" cx="87.369" cy="29.984" r="5.665"/>
	<radialGradient id="SVGID_3_" cx="87.3687" cy="29.9844" r="5.6606" gradientUnits="userSpaceOnUse">
		<stop  offset="0.15" style="stop-color:#FFFFFF"/>
		<stop  offset="0.2824" style="stop-color:#A9A09D"/>
		<stop  offset="0.4253" style="stop-color:#655A55"/>
		<stop  offset="0.5636" style="stop-color:#382F2A"/>
		<stop  offset="0.6936" style="stop-color:#1C150E"/>
		<stop  offset="0.8134" style="stop-color:#090500"/>
		<stop  offset="0.9192" style="stop-color:#010100"/>
		<stop  offset="1" style="stop-color:#000000"/>
	</radialGradient>
	<circle fill="url(#SVGID_3_)" cx="87.369" cy="29.984" r="5.661"/>
	<polyline opacity="0.03" fill="none" stroke="#FFFFFF" stroke-width="2" stroke-miterlimit="10" points="87.369,29.984 
		87.503,31.291 87.369,29.984 87.234,28.678 87.369,29.984 86.062,30.121 87.369,29.984 88.676,29.849 87.369,29.984 96.506,29.993 
		87.369,29.984 78.231,29.976 87.369,29.984 87.36,39.12 87.369,29.984 87.377,20.849 87.369,29.984 96.957,33.181 87.369,29.984 
		77.781,26.788 87.369,29.984 84.171,39.572 87.369,29.984 90.566,20.396 87.369,29.984 88.74,32.497 87.369,29.984 85.998,27.472 
		87.369,29.984 84.856,31.354 87.369,29.984 89.881,28.614 87.369,29.984 90.139,30.142 87.369,29.984 84.598,29.827 87.369,29.984 
		87.212,32.756 87.369,29.984 87.526,27.212 87.369,29.984 103.823,32.159 87.369,29.984 70.915,27.81 87.369,29.984 85.193,46.438 
		87.369,29.984 89.544,13.531 87.369,29.984 105.952,44.444 87.369,29.984 68.785,15.525 87.369,29.984 72.909,48.567 
		87.369,29.984 101.828,11.402 87.369,29.984 105.426,38.406 87.369,29.984 69.312,21.563 87.369,29.984 78.946,48.041 
		87.369,29.984 95.792,11.928 87.369,29.984 112.71,47.163 87.369,29.984 62.027,12.806 87.369,29.984 70.191,55.324 87.369,29.984 
		104.546,4.645 87.369,29.984 99.128,38.814 87.369,29.984 75.609,21.155 87.369,29.984 78.539,41.743 87.369,29.984 96.198,18.226 
		87.369,29.984 95.537,43.089 87.369,29.984 79.2,16.879 87.369,29.984 74.265,38.152 87.369,29.984 100.473,21.817 87.369,29.984 
		100.375,39.482 87.369,29.984 74.362,20.487 87.369,29.984 77.871,42.99 87.369,29.984 96.866,16.979 87.369,29.984 99.533,43.097 
		87.369,29.984 75.205,16.872 87.369,29.984 74.256,42.147 87.369,29.984 100.481,17.821 87.369,29.984 94.226,51.983 
		87.369,29.984 80.512,7.985 87.369,29.984 65.371,36.843 87.369,29.984 109.366,23.126 87.369,29.984 101.601,59.535 
		87.369,29.984 73.137,0.434 87.369,29.984 57.819,44.217 87.369,29.984 116.918,15.751 87.369,29.984 106.554,37.994 
		87.369,29.984 68.184,21.975 87.369,29.984 79.359,49.169 87.369,29.984 95.378,10.799 87.369,29.984 100.961,50.51 87.369,29.984 
		73.776,9.458 87.369,29.984 66.844,43.577 87.369,29.984 107.894,16.392 87.369,29.984 96.203,49.831 87.369,29.984 78.535,10.138 
		87.369,29.984 67.522,38.818 87.369,29.984 107.215,21.15 87.369,29.984 90.956,56.052 87.369,29.984 83.782,3.917 87.369,29.984 
		61.3,33.571 87.369,29.984 113.438,26.397 87.369,29.984 106.664,33.744 87.369,29.984 68.073,26.225 87.369,29.984 83.609,49.28 
		87.369,29.984 91.128,10.689 87.369,29.984 104.751,34.358 87.369,29.984 69.986,25.61 87.369,29.984 82.995,47.367 87.369,29.984 
		91.743,12.602 87.369,29.984 98.031,38.834 87.369,29.984 76.706,21.135 87.369,29.984 78.519,40.648 87.369,29.984 96.218,19.32 
		87.369,29.984 98.332,51.015 87.369,29.984 76.405,8.954 87.369,29.984 66.339,40.949 87.369,29.984 108.398,19.02 87.369,29.984 
		115.361,39.106 87.369,29.984 59.376,20.863 87.369,29.984 78.247,57.976 87.369,29.984 96.49,1.993 	"/>
</g>
<g>
	<g>
		<path fill="none" stroke="#000000" stroke-width="0.5" stroke-miterlimit="10" d="M56.593,111.008
			c4.78,0.419,10.557,1.375,15.149,2.384"/>
		<g>
			<polygon points="57.493,112.56 52.169,110.787 57.667,109.66 			"/>
		</g>
		<g>
			<polygon points="70.431,114.597 76.041,114.453 71.11,111.772 			"/>
		</g>
	</g>
</g>
<text transform="matrix(1 0 0 1 62.0972 103.6182)" font-family="'Cambria-Italic'" font-size="12">β</text>
<text transform="matrix(1 0 0 1 141.5972 178.6182)" fill="#004F9F" font-family="'Cambria-Italic'" font-size="12">u&apos;</text>
<text transform="matrix(1 0 0 1 73.5972 230.1182)" font-family="'Cambria-Italic'" font-size="12">Erde</text>
<text transform="matrix(0.3063 -0.9519 0.9519 0.3063 71.769 173.5176)" font-family="'Cambria-Italic'" font-size="12">Fernrohr</text>
</svg>
