<?xml version="1.0" encoding="utf-8"?>
<!-- Generator: Adobe Illustrator 16.0.0, SVG Export Plug-In . SVG Version: 6.00 Build 0)  -->
<!DOCTYPE svg PUBLIC "-//W3C//DTD SVG 1.1//EN" "http://www.w3.org/Graphics/SVG/1.1/DTD/svg11.dtd">
<svg version="1.1" xmlns="http://www.w3.org/2000/svg" xmlns:xlink="http://www.w3.org/1999/xlink" x="0px" y="0px"
	 width="624.475px" height="298.526px" viewBox="0 0 624.475 298.526" enable-background="new 0 0 624.475 298.526"
	 xml:space="preserve">
<g id="Ebene_1">
	<g>
		<g>
			<line fill="none" stroke="#000000" stroke-miterlimit="10" x1="0" y1="156.794" x2="283.464" y2="156.794"/>
			<g>
				<polygon points="281.979,158.973 290.109,156.795 281.979,154.615 				"/>
			</g>
		</g>
	</g>
	<g>
		<linearGradient id="SVGID_1_" gradientUnits="userSpaceOnUse" x1="141.7324" y1="156.7939" x2="141.7324" y2="156.7939">
			<stop  offset="0" style="stop-color:#FFFFFF"/>
			<stop  offset="1" style="stop-color:#000000"/>
		</linearGradient>
		<line fill="url(#SVGID_1_)" x1="141.732" y1="15.062" x2="141.732" y2="298.526"/>
		<g>
			<line fill="none" stroke="#000000" stroke-miterlimit="10" x1="141.732" y1="15.062" x2="141.732" y2="298.526"/>
			<g>
				<polygon points="139.554,16.548 141.731,8.417 143.911,16.548 				"/>
			</g>
		</g>
	</g>
	<g>
		<g>
			<line fill="none" stroke="#000000" stroke-miterlimit="10" x1="234.036" y1="56.212" x2="301.475" y2="56.212"/>
			<g>
				<polygon points="299.493,59.118 310.334,56.214 299.493,53.307 				"/>
			</g>
		</g>
	</g>
	<text transform="matrix(1 0 0 1 265.001 50.2114)" font-family="'Cambria-Italic'" font-size="12">u</text>
</g>
<g id="Ebene_2">
	<g id="Strahlen">
		<g>
			<g>
				
					<line fill="none" stroke="#00A19A" stroke-width="0.5" stroke-miterlimit="10" x1="141.732" y1="156.794" x2="243.886" y2="156.794"/>
				<g>
					<polygon fill="#00A19A" points="242.895,158.247 248.315,156.795 242.895,155.341 					"/>
				</g>
			</g>
		</g>
		<g>
			<g>
				
					<line fill="none" stroke="#00A19A" stroke-width="0.5" stroke-miterlimit="10" x1="141.732" y1="156.794" x2="240.405" y2="130.354"/>
				<g>
					<polygon fill="#00A19A" points="239.824,132.014 244.684,129.209 239.072,129.208 					"/>
				</g>
			</g>
		</g>
		<g>
			<g>
				
					<line fill="none" stroke="#00A19A" stroke-width="0.5" stroke-miterlimit="10" x1="141.732" y1="156.794" x2="230.199" y2="105.717"/>
				<g>
					<polygon fill="#00A19A" points="230.068,107.47 234.036,103.503 228.615,104.954 					"/>
				</g>
			</g>
		</g>
		<g>
			<g>
				
					<line fill="none" stroke="#00A19A" stroke-width="0.5" stroke-miterlimit="10" x1="141.732" y1="156.794" x2="213.965" y2="84.561"/>
				<g>
					<polygon fill="#00A19A" points="214.292,86.288 217.098,81.429 212.238,84.234 					"/>
				</g>
			</g>
		</g>
		<g>
			<g>
				
					<line fill="none" stroke="#00A19A" stroke-width="0.5" stroke-miterlimit="10" x1="141.732" y1="156.794" x2="192.809" y2="68.327"/>
				<g>
					<polygon fill="#00A19A" points="193.571,69.911 195.024,64.491 191.055,68.458 					"/>
				</g>
			</g>
		</g>
		<g>
			<g>
				
					<line fill="none" stroke="#00A19A" stroke-width="0.5" stroke-miterlimit="10" x1="141.732" y1="156.794" x2="168.171" y2="58.121"/>
				<g>
					<polygon fill="#00A19A" points="169.318,59.454 169.318,53.843 166.511,58.702 					"/>
				</g>
			</g>
		</g>
		<g>
			<g>
				
					<line fill="none" stroke="#00A19A" stroke-width="0.5" stroke-miterlimit="10" x1="141.732" y1="156.794" x2="141.732" y2="54.641"/>
				<g>
					<polygon fill="#00A19A" points="143.185,55.632 141.733,50.211 140.28,55.632 					"/>
				</g>
			</g>
		</g>
		<g>
			<g>
				
					<line fill="none" stroke="#00A19A" stroke-width="0.5" stroke-miterlimit="10" x1="141.732" y1="156.794" x2="115.293" y2="58.122"/>
				<g>
					<polygon fill="#00A19A" points="116.953,58.703 114.147,53.843 114.146,59.455 					"/>
				</g>
			</g>
		</g>
		<g>
			<g>
				
					<line fill="none" stroke="#00A19A" stroke-width="0.5" stroke-miterlimit="10" x1="141.732" y1="156.794" x2="90.655" y2="68.328"/>
				<g>
					<polygon fill="#00A19A" points="92.409,68.459 88.441,64.491 89.893,69.912 					"/>
				</g>
			</g>
		</g>
		<g>
			<g>
				
					<line fill="none" stroke="#00A19A" stroke-width="0.5" stroke-miterlimit="10" x1="141.732" y1="156.794" x2="69.499" y2="84.562"/>
				<g>
					<polygon fill="#00A19A" points="71.227,84.235 66.367,81.429 69.172,86.289 					"/>
				</g>
			</g>
		</g>
		<g>
			<g>
				
					<line fill="none" stroke="#00A19A" stroke-width="0.5" stroke-miterlimit="10" x1="141.732" y1="156.794" x2="53.265" y2="105.718"/>
				<g>
					<polygon fill="#00A19A" points="54.849,104.956 49.429,103.502 53.396,107.472 					"/>
				</g>
			</g>
		</g>
		<g>
			<g>
				
					<line fill="none" stroke="#00A19A" stroke-width="0.5" stroke-miterlimit="10" x1="141.732" y1="156.794" x2="43.06" y2="130.356"/>
				<g>
					<polygon fill="#00A19A" points="44.393,129.209 38.781,129.208 43.641,132.016 					"/>
				</g>
			</g>
		</g>
		<g>
			<g>
				
					<line fill="none" stroke="#00A19A" stroke-width="0.5" stroke-miterlimit="10" x1="141.732" y1="156.795" x2="39.579" y2="156.795"/>
				<g>
					<polygon fill="#00A19A" points="40.57,155.342 35.149,156.794 40.57,158.248 					"/>
				</g>
			</g>
		</g>
		<g>
			<g>
				
					<line fill="none" stroke="#00A19A" stroke-width="0.5" stroke-miterlimit="10" x1="141.732" y1="156.795" x2="43.06" y2="183.234"/>
				<g>
					<polygon fill="#00A19A" points="43.641,181.575 38.781,184.38 44.393,184.381 					"/>
				</g>
			</g>
		</g>
		<g>
			<g>
				
					<line fill="none" stroke="#00A19A" stroke-width="0.5" stroke-miterlimit="10" x1="141.732" y1="156.795" x2="53.266" y2="207.872"/>
				<g>
					<polygon fill="#00A19A" points="53.397,206.119 49.429,210.086 54.85,208.635 					"/>
				</g>
			</g>
		</g>
		<g>
			<g>
				
					<line fill="none" stroke="#00A19A" stroke-width="0.5" stroke-miterlimit="10" x1="141.732" y1="156.795" x2="69.5" y2="229.028"/>
				<g>
					<polygon fill="#00A19A" points="69.173,227.301 66.367,232.16 71.227,229.355 					"/>
				</g>
			</g>
		</g>
		<g>
			<g>
				
					<line fill="none" stroke="#00A19A" stroke-width="0.5" stroke-miterlimit="10" x1="141.732" y1="156.795" x2="90.656" y2="245.262"/>
				<g>
					<polygon fill="#00A19A" points="89.894,243.678 88.44,249.098 92.41,245.131 					"/>
				</g>
			</g>
		</g>
		<g>
			<g>
				
					<line fill="none" stroke="#00A19A" stroke-width="0.5" stroke-miterlimit="10" x1="141.732" y1="156.795" x2="115.294" y2="255.468"/>
				<g>
					<polygon fill="#00A19A" points="114.147,254.135 114.146,259.747 116.954,254.887 					"/>
				</g>
			</g>
		</g>
		<g>
			<g>
				
					<line fill="none" stroke="#00A19A" stroke-width="0.5" stroke-miterlimit="10" x1="141.732" y1="156.794" x2="141.732" y2="258.948"/>
				<g>
					<polygon fill="#00A19A" points="140.28,257.957 141.731,263.377 143.185,257.957 					"/>
				</g>
			</g>
		</g>
		<g>
			<g>
				
					<line fill="none" stroke="#00A19A" stroke-width="0.5" stroke-miterlimit="10" x1="141.732" y1="156.794" x2="168.172" y2="255.467"/>
				<g>
					<polygon fill="#00A19A" points="166.512,254.886 169.317,259.746 169.318,254.134 					"/>
				</g>
			</g>
		</g>
		<g>
			<g>
				
					<line fill="none" stroke="#00A19A" stroke-width="0.5" stroke-miterlimit="10" x1="141.732" y1="156.794" x2="192.81" y2="245.261"/>
				<g>
					<polygon fill="#00A19A" points="191.056,245.13 195.023,249.098 193.572,243.677 					"/>
				</g>
			</g>
		</g>
		<g>
			<g>
				
					<line fill="none" stroke="#00A19A" stroke-width="0.5" stroke-miterlimit="10" x1="141.732" y1="156.794" x2="213.966" y2="229.027"/>
				<g>
					<polygon fill="#00A19A" points="212.238,229.354 217.098,232.16 214.292,227.3 					"/>
				</g>
			</g>
		</g>
		<g>
			<g>
				
					<line fill="none" stroke="#00A19A" stroke-width="0.5" stroke-miterlimit="10" x1="141.732" y1="156.794" x2="230.2" y2="207.871"/>
				<g>
					<polygon fill="#00A19A" points="228.616,208.633 234.036,210.086 230.068,206.117 					"/>
				</g>
			</g>
		</g>
		<g>
			<g>
				
					<line fill="none" stroke="#00A19A" stroke-width="0.5" stroke-miterlimit="10" x1="240.405" y1="183.233" x2="141.732" y2="156.794"/>
				<g>
					<polygon fill="#00A19A" points="239.824,181.573 244.685,184.378 239.072,184.38 					"/>
				</g>
			</g>
		</g>
	</g>
	<path fill="#004F9F" fill-opacity="0.2" stroke="#004F9F" stroke-width="0.5" stroke-miterlimit="10" d="M141.732,156.794
		c0,0,27.266,0,34.099,0c0-6.818-1.347-11.683-4.876-16.872C169.165,140.997,141.732,156.794,141.732,156.794z"/>
	<text transform="matrix(1 0 0 1 175.8315 145.1636)" fill="#004F9F" font-family="'Cambria-Italic'" font-size="12">θˈ</text>
	<text transform="matrix(1 0 0 1 289.665 152.332)" fill="#004F9F" font-family="'Cambria-Italic'" font-size="12">xˈ</text>
	<text transform="matrix(1 0 0 1 146.3315 9.999)" fill="#004F9F" font-family="'Cambria-Italic'" font-size="12">yˈ</text>
</g>
<g id="Ebene_1_Kopie">
	<g>
		<g>
			<line fill="none" stroke="#000000" stroke-miterlimit="10" x1="329.267" y1="156.794" x2="612.73" y2="156.794"/>
			<g>
				<polygon points="611.245,158.973 619.375,156.795 611.245,154.615 				"/>
			</g>
		</g>
	</g>
	<g>
		<linearGradient id="SVGID_2_" gradientUnits="userSpaceOnUse" x1="470.999" y1="156.7939" x2="470.999" y2="156.7939">
			<stop  offset="0" style="stop-color:#FFFFFF"/>
			<stop  offset="1" style="stop-color:#000000"/>
		</linearGradient>
		<line fill="url(#SVGID_2_)" x1="470.999" y1="15.062" x2="470.999" y2="298.526"/>
		<g>
			<line fill="none" stroke="#000000" stroke-miterlimit="10" x1="470.999" y1="15.062" x2="470.999" y2="298.526"/>
			<g>
				<polygon points="468.82,16.548 470.998,8.417 473.178,16.548 				"/>
			</g>
		</g>
	</g>
</g>
<g id="Ebene_2_Kopie">
	<g id="Strahlen_2_">
		<g>
			<g>
				
					<line fill="none" stroke="#00A19A" stroke-width="0.5" stroke-miterlimit="10" x1="470.999" y1="156.794" x2="573.152" y2="156.794"/>
				<g>
					<polygon fill="#00A19A" points="572.162,158.247 577.582,156.795 572.162,155.341 					"/>
				</g>
			</g>
		</g>
		<g>
			<g>
				
					<line fill="none" stroke="#00A19A" stroke-width="0.5" stroke-miterlimit="10" x1="470.999" y1="156.794" x2="572.647" y2="146.648"/>
				<g>
					<polygon fill="#00A19A" points="571.807,148.192 577.056,146.209 571.518,145.301 					"/>
				</g>
			</g>
		</g>
		<g>
			<g>
				
					<line fill="none" stroke="#00A19A" stroke-width="0.5" stroke-miterlimit="10" x1="470.999" y1="156.794" x2="571.077" y2="136.305"/>
				<g>
					<polygon fill="#00A19A" points="570.398,137.927 575.417,135.418 569.815,135.081 					"/>
				</g>
			</g>
		</g>
		<g>
			<g>
				
					<line fill="none" stroke="#00A19A" stroke-width="0.5" stroke-miterlimit="10" x1="470.999" y1="156.794" x2="568.262" y2="125.566"/>
				<g>
					<polygon fill="#00A19A" points="567.763,127.252 572.479,124.213 566.875,124.486 					"/>
				</g>
			</g>
		</g>
		<g>
			<g>
				
					<line fill="none" stroke="#00A19A" stroke-width="0.5" stroke-miterlimit="10" x1="470.999" y1="156.794" x2="563.864" y2="114.237"/>
				<g>
					<polygon fill="#00A19A" points="563.569,115.97 567.892,112.393 562.358,113.329 					"/>
				</g>
			</g>
		</g>
		<g>
			<g>
				
					<line fill="none" stroke="#00A19A" stroke-width="0.5" stroke-miterlimit="10" x1="470.999" y1="156.794" x2="557.298" y2="102.132"/>
				<g>
					<polygon fill="#00A19A" points="557.238,103.89 561.041,99.763 555.684,101.436 					"/>
				</g>
			</g>
		</g>
		<g>
			<g>
				
					<line fill="none" stroke="#00A19A" stroke-width="0.5" stroke-miterlimit="10" x1="470.999" y1="156.794" x2="547.613" y2="89.225"/>
				<g>
					<polygon fill="#00A19A" points="547.831,90.97 550.937,86.295 545.909,88.791 					"/>
				</g>
			</g>
		</g>
		<g>
			<g>
				
					<line fill="none" stroke="#00A19A" stroke-width="0.5" stroke-miterlimit="10" x1="470.999" y1="156.794" x2="533.271" y2="75.815"/>
				<g>
					<polygon fill="#00A19A" points="533.818,77.486 535.972,72.304 531.515,75.715 					"/>
				</g>
			</g>
		</g>
		<g>
			<g>
				
					<line fill="none" stroke="#00A19A" stroke-width="0.5" stroke-miterlimit="10" x1="470.999" y1="156.794" x2="511.88" y2="63.177"/>
				<g>
					<polygon fill="#00A19A" points="512.814,64.667 513.653,59.118 510.152,63.504 					"/>
				</g>
			</g>
		</g>
		<g>
			<g>
				
					<line fill="none" stroke="#00A19A" stroke-width="0.5" stroke-miterlimit="10" x1="470.999" y1="156.794" x2="480.347" y2="55.069"/>
				<g>
					<polygon fill="#00A19A" points="481.702,56.189 480.753,50.658 478.81,55.923 					"/>
				</g>
			</g>
		</g>
		<g>
			<g>
				
					<line fill="none" stroke="#00A19A" stroke-width="0.5" stroke-miterlimit="10" x1="470.999" y1="156.793" x2="437.203" y2="60.393"/>
				<g>
					<polygon fill="#00A19A" points="438.901,60.847 435.738,56.212 436.16,61.808 					"/>
				</g>
			</g>
		</g>
		<g>
			<g>
				
					<line fill="none" stroke="#00A19A" stroke-width="0.5" stroke-miterlimit="10" x1="470.999" y1="156.793" x2="390.966" y2="93.312"/>
				<g>
					<polygon fill="#00A19A" points="392.645,92.789 387.496,90.558 390.839,95.065 					"/>
				</g>
			</g>
		</g>
		<g>
			<g>
				
					<line fill="none" stroke="#00A19A" stroke-width="0.5" stroke-miterlimit="10" x1="470.999" y1="156.793" x2="368.845" y2="156.755"/>
				<g>
					<polygon fill="#00A19A" points="369.836,155.303 364.415,156.753 369.835,158.208 					"/>
				</g>
			</g>
		</g>
		<g>
			<g>
				
					<line fill="none" stroke="#00A19A" stroke-width="0.5" stroke-miterlimit="10" x1="470.999" y1="156.793" x2="572.647" y2="166.938"/>
				<g>
					<polygon fill="#00A19A" points="571.518,168.286 577.056,167.379 571.807,165.395 					"/>
				</g>
			</g>
		</g>
		<g>
			<g>
				
					<line fill="none" stroke="#00A19A" stroke-width="0.5" stroke-miterlimit="10" x1="470.999" y1="156.793" x2="571.077" y2="177.282"/>
				<g>
					<polygon fill="#00A19A" points="569.815,178.506 575.417,178.171 570.398,175.66 					"/>
				</g>
			</g>
		</g>
		<g>
			<g>
				
					<line fill="none" stroke="#00A19A" stroke-width="0.5" stroke-miterlimit="10" x1="470.999" y1="156.793" x2="568.262" y2="188.021"/>
				<g>
					<polygon fill="#00A19A" points="566.875,189.101 572.479,189.376 567.763,186.335 					"/>
				</g>
			</g>
		</g>
		<g>
			<g>
				
					<line fill="none" stroke="#00A19A" stroke-width="0.5" stroke-miterlimit="10" x1="470.999" y1="156.793" x2="563.864" y2="199.35"/>
				<g>
					<polygon fill="#00A19A" points="562.358,200.258 567.892,201.196 563.569,197.617 					"/>
				</g>
			</g>
		</g>
		<g>
			<g>
				
					<line fill="none" stroke="#00A19A" stroke-width="0.5" stroke-miterlimit="10" x1="470.999" y1="156.793" x2="557.298" y2="211.455"/>
				<g>
					<polygon fill="#00A19A" points="555.684,212.151 561.039,213.826 557.238,209.697 					"/>
				</g>
			</g>
		</g>
		<g>
			<g>
				
					<line fill="none" stroke="#00A19A" stroke-width="0.5" stroke-miterlimit="10" x1="470.999" y1="156.793" x2="547.613" y2="224.362"/>
				<g>
					<polygon fill="#00A19A" points="545.909,224.796 550.935,227.292 547.831,222.617 					"/>
				</g>
			</g>
		</g>
		<g>
			<g>
				
					<line fill="none" stroke="#00A19A" stroke-width="0.5" stroke-miterlimit="10" x1="470.999" y1="156.793" x2="533.271" y2="237.771"/>
				<g>
					<polygon fill="#00A19A" points="531.515,237.872 535.97,241.284 533.818,236.101 					"/>
				</g>
			</g>
		</g>
		<g>
			<g>
				
					<line fill="none" stroke="#00A19A" stroke-width="0.5" stroke-miterlimit="10" x1="470.999" y1="156.793" x2="511.88" y2="250.41"/>
				<g>
					<polygon fill="#00A19A" points="510.152,250.083 513.651,254.47 512.814,248.92 					"/>
				</g>
			</g>
		</g>
		<g>
			<g>
				
					<line fill="none" stroke="#00A19A" stroke-width="0.5" stroke-miterlimit="10" x1="470.999" y1="156.793" x2="480.347" y2="258.518"/>
				<g>
					<polygon fill="#00A19A" points="478.81,257.664 480.751,262.929 481.702,257.398 					"/>
				</g>
			</g>
		</g>
		<g>
			<g>
				
					<line fill="none" stroke="#00A19A" stroke-width="0.5" stroke-miterlimit="10" x1="470.999" y1="156.793" x2="437.203" y2="253.194"/>
				<g>
					<polygon fill="#00A19A" points="436.16,251.779 435.736,257.374 438.901,252.74 					"/>
				</g>
			</g>
		</g>
		<g>
			<g>
				
					<line fill="none" stroke="#00A19A" stroke-width="0.5" stroke-miterlimit="10" x1="470.999" y1="156.793" x2="390.966" y2="220.275"/>
				<g>
					<polygon fill="#00A19A" points="390.839,218.522 387.494,223.027 392.645,220.798 					"/>
				</g>
			</g>
		</g>
	</g>
	<path fill-opacity="0.2" stroke="#000000" stroke-width="0.5" stroke-miterlimit="10" d="M470.999,156.794c0,0,27.266,0,34.099,0
		c0-2.514-0.184-4.762-0.591-6.859C501,150.705,470.999,156.794,470.999,156.794z"/>
	<text transform="matrix(1 0 0 1 515.0977 150.8301)" font-family="'Cambria-Italic'" font-size="12">θ</text>
	<text transform="matrix(1 0 0 1 618.9316 152.332)" font-family="'Cambria-Italic'" font-size="12">x</text>
	<text transform="matrix(1 0 0 1 475.5977 9.999)" font-family="'Cambria-Italic'" font-size="12">y</text>
</g>
</svg>
