<?xml version="1.0" encoding="utf-8"?>
<!-- Generator: Adobe Illustrator 16.0.0, SVG Export Plug-In . SVG Version: 6.00 Build 0)  -->
<!DOCTYPE svg PUBLIC "-//W3C//DTD SVG 1.1//EN" "http://www.w3.org/Graphics/SVG/1.1/DTD/svg11.dtd">
<svg version="1.1" xmlns="http://www.w3.org/2000/svg" xmlns:xlink="http://www.w3.org/1999/xlink" x="0px" y="0px"
	 width="421.411px" height="108.172px" viewBox="0 0 421.411 108.172" enable-background="new 0 0 421.411 108.172"
	 xml:space="preserve">
<g id="Ebene_1">
	<g>
		<g>
			
				<line fill="none" stroke="#2FAC66" stroke-width="0.75" stroke-miterlimit="10" x1="76.158" y1="72.909" x2="91.657" y2="40.055"/>
			<g>
				<polygon fill="#2FAC66" points="78.502,72.536 73.608,78.318 74.956,70.863 				"/>
			</g>
		</g>
	</g>
	<path fill="none" stroke="#000000" stroke-miterlimit="10" d="M148.843,108.018C128.688,45.986,62.185,12.102,0.154,32.256"/>
	<g>
		<g>
			
				<line fill="none" stroke="#000000" stroke-width="0.5" stroke-miterlimit="10" x1="91.657" y1="40.055" x2="92.084" y2="39.151"/>
			
				<line fill="none" stroke="#000000" stroke-width="0.5" stroke-miterlimit="10" stroke-dasharray="1.9193,1.9193" x1="92.903" y1="37.415" x2="108.872" y2="3.565"/>
			
				<line fill="none" stroke="#000000" stroke-width="0.5" stroke-miterlimit="10" x1="109.281" y1="2.697" x2="109.708" y2="1.793"/>
		</g>
	</g>
	<text transform="matrix(1 0 0 1 78.6162 80.0972)" fill="#2FAC66" font-family="'Cambria-Italic'" font-size="12">a</text>
	<text transform="matrix(1 0 0 1 93.3467 103.9307)" font-family="'Cambria-Italic'" font-size="12">Kreisbahn</text>
</g>
<g id="Ebene_2">
	<path fill="#706F6F" fill-opacity="0.2" stroke="#000000" stroke-width="0.25" stroke-miterlimit="10" d="M29.19,12.439
		c-5.415,12.246,4.184,28.355,21.431,35.982c17.251,7.629,35.625,3.884,41.036-8.364c5.418-12.243-4.178-28.353-21.429-35.979
		C52.979-3.55,34.609,0.197,29.19,12.439z"/>
	<g>
		<g>
			<g>
				
					<line fill="none" stroke="#000000" stroke-width="0.5" stroke-miterlimit="10" x1="91.657" y1="40.055" x2="79.62" y2="11.452"/>
				<g>
					<polygon points="80.757,11.683 78.486,8.757 78.99,12.427 					"/>
				</g>
			</g>
		</g>
		<g>
			<g>
				
					<line fill="none" stroke="#000000" stroke-width="0.5" stroke-miterlimit="10" x1="91.657" y1="40.055" x2="64.096" y2="3.706"/>
				<g>
					<polygon points="65.255,3.648 62.33,1.376 63.727,4.806 					"/>
				</g>
			</g>
		</g>
		<g>
			<g>
				
					<line fill="none" stroke="#000000" stroke-width="0.5" stroke-miterlimit="10" x1="91.657" y1="40.055" x2="52.243" y2="2.212"/>
				<g>
					<polygon points="53.379,1.973 50.135,0.187 52.051,3.356 					"/>
				</g>
			</g>
		</g>
		<g>
			<g>
				
					<line fill="none" stroke="#000000" stroke-width="0.5" stroke-miterlimit="10" x1="91.657" y1="40.055" x2="41.803" y2="4.361"/>
				<g>
					<polygon points="42.893,3.962 39.426,2.658 41.776,5.521 					"/>
				</g>
			</g>
		</g>
		<g>
			<g>
				
					<line fill="none" stroke="#000000" stroke-width="0.5" stroke-miterlimit="10" x1="91.657" y1="40.055" x2="33.608" y2="10.61"/>
				<g>
					<polygon points="34.625,10.051 31.001,9.287 33.758,11.761 					"/>
				</g>
			</g>
		</g>
		<g>
			<g>
				
					<line fill="none" stroke="#000000" stroke-width="0.5" stroke-miterlimit="10" x1="91.657" y1="40.055" x2="30.473" y2="20.777"/>
				<g>
					<polygon points="31.384,20.06 27.684,19.898 30.808,21.888 					"/>
				</g>
			</g>
		</g>
		<g>
			<g>
				
					<line fill="none" stroke="#000000" stroke-width="0.5" stroke-miterlimit="10" x1="91.657" y1="40.055" x2="33.001" y2="30.239"/>
				<g>
					<polygon points="33.804,29.401 30.118,29.756 33.488,31.292 					"/>
				</g>
			</g>
		</g>
		<g>
			<g>
				
					<line fill="none" stroke="#000000" stroke-width="0.5" stroke-miterlimit="10" x1="91.657" y1="40.055" x2="39.812" y2="39.184"/>
				<g>
					<polygon points="40.482,38.236 36.889,39.134 40.45,40.153 					"/>
				</g>
			</g>
		</g>
		<g>
			<g>
				
					<line fill="none" stroke="#000000" stroke-width="0.5" stroke-miterlimit="10" x1="91.657" y1="40.055" x2="53.486" y2="47.837"/>
				<g>
					<polygon points="53.936,46.767 50.622,48.421 54.318,48.646 					"/>
				</g>
			</g>
		</g>
		<g>
			<g>
				
					<line fill="none" stroke="#000000" stroke-width="0.5" stroke-miterlimit="10" x1="91.657" y1="40.055" x2="71.402" y2="50.983"/>
				<g>
					<polygon points="71.522,49.829 68.829,52.371 72.433,51.517 					"/>
				</g>
			</g>
		</g>
	</g>
	
		<ellipse transform="matrix(0.8942 0.4477 -0.4477 0.8942 37.7046 -48.8475)" fill="#706F6F" fill-opacity="0.2" stroke="#000000" stroke-width="0.25" stroke-miterlimit="10" cx="122.193" cy="55.344" rx="34.149" ry="24.244"/>
	<g>
		<g>
			<g>
				
					<line fill="none" stroke="#000000" stroke-width="0.5" stroke-miterlimit="10" x1="91.657" y1="40.055" x2="121.379" y2="31.121"/>
				<g>
					<polygon points="121.029,32.228 124.179,30.28 120.477,30.391 					"/>
				</g>
			</g>
		</g>
		<g>
			<g>
				
					<line fill="none" stroke="#000000" stroke-width="0.5" stroke-miterlimit="10" x1="91.657" y1="40.055" x2="137.238" y2="38.159"/>
				<g>
					<polygon points="136.624,39.144 140.159,38.038 136.544,37.228 					"/>
				</g>
			</g>
		</g>
		<g>
			<g>
				
					<line fill="none" stroke="#000000" stroke-width="0.5" stroke-miterlimit="10" x1="91.657" y1="40.055" x2="145.938" y2="46.346"/>
				<g>
					<polygon points="145.179,47.223 148.843,46.683 145.399,45.318 					"/>
				</g>
			</g>
		</g>
		<g>
			<g>
				
					<line fill="none" stroke="#000000" stroke-width="0.5" stroke-miterlimit="10" x1="91.657" y1="40.055" x2="150.928" y2="55.761"/>
				<g>
					<polygon points="150.051,56.521 153.754,56.511 150.542,54.667 					"/>
				</g>
			</g>
		</g>
		<g>
			<g>
				
					<line fill="none" stroke="#000000" stroke-width="0.5" stroke-miterlimit="10" x1="91.657" y1="40.055" x2="151.329" y2="66.06"/>
				<g>
					<polygon points="150.346,66.678 154.008,67.229 151.112,64.92 					"/>
				</g>
			</g>
		</g>
		<g>
			<g>
				
					<line fill="none" stroke="#000000" stroke-width="0.5" stroke-miterlimit="10" x1="91.657" y1="40.055" x2="145.486" y2="74.954"/>
				<g>
					<polygon points="144.416,75.402 147.939,76.544 145.459,73.793 					"/>
				</g>
			</g>
		</g>
		<g>
			<g>
				
					<line fill="none" stroke="#000000" stroke-width="0.5" stroke-miterlimit="10" x1="91.657" y1="40.055" x2="136.581" y2="79.029"/>
				<g>
					<polygon points="135.458,79.325 138.789,80.946 136.715,77.877 					"/>
				</g>
			</g>
		</g>
		<g>
			<g>
				
					<line fill="none" stroke="#000000" stroke-width="0.5" stroke-miterlimit="10" x1="91.657" y1="40.055" x2="125.348" y2="79.474"/>
				<g>
					<polygon points="124.194,79.6 127.247,81.697 125.651,78.354 					"/>
				</g>
			</g>
		</g>
		<g>
			<g>
				
					<line fill="none" stroke="#000000" stroke-width="0.5" stroke-miterlimit="10" x1="91.657" y1="40.055" x2="109.966" y2="74.441"/>
				<g>
					<polygon points="108.813,74.315 111.339,77.022 110.505,73.414 					"/>
				</g>
			</g>
		</g>
		<g>
			<g>
				
					<line fill="none" stroke="#000000" stroke-width="0.5" stroke-miterlimit="10" x1="91.657" y1="40.055" x2="96.132" y2="62.633"/>
				<g>
					<polygon points="95.064,62.178 96.7,65.5 96.946,61.805 					"/>
				</g>
			</g>
		</g>
	</g>
	<path fill="none" stroke="#004F9F" stroke-width="0.5" stroke-miterlimit="10" d="M99.969,22.437
		c5.147,2.702,8.346,7.576,9.739,12.192"/>
	<text transform="matrix(1 0 0 1 106.9912 25.2637)" fill="#004F9F" font-family="'Cambria-Italic'" font-size="12">φ&apos;</text>
	<text transform="matrix(1 0 0 1 145.3662 39.5947)" font-family="'Cambria-Italic'" font-size="12">sin</text>
	<text transform="matrix(0.583 0 0 0.583 159.6221 35.5986)" font-family="'Cambria-Italic'" font-size="12">2</text>
	<text transform="matrix(1 0 0 1 163.3184 39.5947)" fill="#004F9F" font-family="'Cambria-Italic'" font-size="12">φ&apos;</text>
</g>
<g id="Ebene_1_Kopie">
	<g>
		<g>
			
				<line fill="none" stroke="#2FAC66" stroke-width="0.75" stroke-miterlimit="10" x1="294.023" y1="72.909" x2="309.522" y2="40.055"/>
			<g>
				<polygon fill="#2FAC66" points="296.368,72.536 291.474,78.318 292.821,70.863 				"/>
			</g>
		</g>
	</g>
	<path fill="none" stroke="#000000" stroke-miterlimit="10" d="M366.708,108.018C346.553,45.986,280.05,12.102,218.02,32.256"/>
	<g>
		<g>
			
				<line fill="none" stroke="#000000" stroke-width="0.5" stroke-miterlimit="10" x1="309.522" y1="40.055" x2="309.949" y2="39.151"/>
			
				<line fill="none" stroke="#000000" stroke-width="0.5" stroke-miterlimit="10" stroke-dasharray="1.9193,1.9193" x1="310.769" y1="37.415" x2="326.737" y2="3.565"/>
			
				<line fill="none" stroke="#000000" stroke-width="0.5" stroke-miterlimit="10" x1="327.146" y1="2.697" x2="327.573" y2="1.793"/>
		</g>
	</g>
	<text transform="matrix(1 0 0 1 296.4814 80.0972)" fill="#2FAC66" font-family="'Cambria-Italic'" font-size="12">a</text>
	<text transform="matrix(1 0 0 1 311.2119 103.9307)" font-family="'Cambria-Italic'" font-size="12">Kreisbahn</text>
</g>
<g id="Ebene_4">
	<g>
		<g>
			
				<line fill="none" stroke="#000000" stroke-width="0.5" stroke-miterlimit="10" x1="397.5" y1="84.569" x2="309.522" y2="39.707"/>
			<g>
				<polygon points="397.333,83.261 400.46,86.078 396.344,85.203 				"/>
			</g>
		</g>
	</g>
	
		<line fill="none" stroke="#000000" stroke-width="0.25" stroke-miterlimit="10" x1="417.186" y1="94.607" x2="400.46" y2="86.079"/>
	<g>
		<g>
			
				<line fill="none" stroke="#000000" stroke-width="0.5" stroke-miterlimit="10" x1="390.616" y1="75.737" x2="309.522" y2="39.707"/>
			<g>
				<polygon points="390.38,74.44 393.652,77.086 389.495,76.432 				"/>
			</g>
		</g>
	</g>
	<g>
		<g>
			<line fill="none" stroke="#000000" stroke-width="0.5" stroke-miterlimit="10" x1="385.529" y1="84" x2="309.522" y2="39.707"/>
			<g>
				<polygon points="385.436,82.685 388.399,85.673 384.339,84.568 				"/>
			</g>
		</g>
	</g>
	<path fill="none" stroke="#000000" stroke-width="0.75" stroke-miterlimit="10" d="M400.46,86.079
		c5.657-11.813-90.938-46.023-90.938-46.023S394.803,97.892,400.46,86.079z"/>
	
		<line fill="none" stroke="#000000" stroke-width="0.25" stroke-miterlimit="10" x1="368.574" y1="62.69" x2="421.366" y2="82.889"/>
	<g>
		<g>
			<path fill="none" stroke="#000000" stroke-width="0.25" stroke-miterlimit="10" d="M408.823,90.343
				c1.138-2.069,2.741-5.436,3.939-8.373"/>
			<g>
				<polygon points="413.191,82.685 413.563,79.903 411.851,82.126 				"/>
			</g>
		</g>
	</g>
	<text transform="matrix(1 0 0 1 413.0537 91.5137)" font-family="'Cambria-Italic'" font-size="12">θ</text>
</g>
</svg>
